<svg width="92" height="580" viewBox="0 0 92 580" fill="none" xmlns="http://www.w3.org/2000/svg">
<path d="M88.1774 579H42.7885L38.6774 232L34.6774 167.5L25.1774 113.5L2.17737 4C38.4885 20.0139 58.1835 49.0392 63.4922 61.55L70.6589 87.0722L77.0292 131.611C78.9403 137.616 82.6033 182.155 84.1959 203.674V257.22L88.1774 369.318V579Z" fill="#D9D9D9" stroke="black"/>
<path d="M38.6774 66C33.6774 56.5 18.1774 40.5 8.67737 34L21.6774 96.5L35.1774 167.5L39.1774 229L42.6774 579H66.1774L59.6774 226L56.1774 161.5L45.6774 96L38.6774 66Z" fill="#241818" stroke="black"/>
<path d="M68.6774 579.5L65.1774 411" stroke="black"/>
<path d="M65.1774 394L61.1774 214.5" stroke="black"/>
<path d="M59.1774 176L58.1774 161.5L47.6774 96.5" stroke="black"/>
<path d="M63.6774 236.5V212L61.1774 175L60.1774 163.5L55.6774 133.5" stroke="black"/>
<path d="M63.1774 61C50.7774 33 17.344 11.3333 2.17737 4L1.17737 1C41.1774 20.6 60.5107 49.1667 65.1774 61L72.6774 87.5L78.6774 130.5L79.6774 135L86.1774 202.5V259L90.1774 369L91.1774 579H88.1774V369L84.1774 259V202.5L77.6774 135L76.6774 130.5L70.6774 87.5L63.1774 61Z" fill="#241818" stroke="black"/>
</svg>
