<svg width="92" height="580" viewBox="0 0 92 580" fill="none" xmlns="http://www.w3.org/2000/svg">
<path d="M4 579H49.3889L53.5 232L57.5 167.5L67 113.5L90 4C53.6889 20.0139 33.9938 49.0392 28.6852 61.55L21.5185 87.0722L15.1481 131.611C13.237 137.616 9.57407 182.155 7.98148 203.674V257.22L4 369.318V579Z" fill="#D9D9D9" stroke="black"/>
<path d="M53.5 66C58.5 56.5 74 40.5 83.5 34L70.4999 96.5L56.9999 167.5L52.9999 229L49.4999 579H25.9999L32.4999 226L35.9999 161.5L46.4999 96L53.5 66Z" fill="#241818" stroke="black"/>
<path d="M23.5 579.5L27 411" stroke="black"/>
<path d="M27 394L31 214.5" stroke="black"/>
<path d="M33 176L34 161.5L44.5 96.5" stroke="black"/>
<path d="M28.5 236.5V212L31 175L32 163.5L36.5 133.5" stroke="black"/>
<path d="M29 61C41.4 33 74.8333 11.3333 90 4L91 1C51 20.6 31.6667 49.1667 27 61L19.5 87.5L13.5 130.5L12.5 135L6 202.5V259L2 369L1 579H4V369L8 259V202.5L14.5 135L15.5 130.5L21.5 87.5L29 61Z" fill="#241818" stroke="black"/>
</svg>
