<svg width="35" height="402" viewBox="0 0 35 402" fill="none" xmlns="http://www.w3.org/2000/svg">
<path d="M23.7182 1H10.6968C9.79791 1 9.06918 1.72873 9.06918 2.62767C9.06918 3.52661 9.79791 4.25534 10.6968 4.25534H23.7182C24.6171 4.25534 25.3459 3.52661 25.3459 2.62767C25.3459 1.72873 24.6171 1 23.7182 1Z" stroke="black" stroke-width="0.5"/>
<path d="M33.8 106.6H1V109.8H33.8V106.6Z" stroke="black" stroke-width="0.5"/>
<path d="M25.6836 109.8H9V113.055H25.6836V109.8Z" stroke="black" stroke-width="0.5"/>
<path d="M9.88301 4.25534V106.392H24.532V4.29294" stroke="black" stroke-width="0.5"/>
<path d="M30.6 106.6V109.855" stroke="black" stroke-width="0.5"/>
<path d="M4.2 109.855V106.6" stroke="black" stroke-width="0.5"/>
<path d="M10.6968 112.902V342.565L12.1211 355.222L14.766 370.877L18.8352 387.184L23.588 401L23.7182 112.902" stroke="black" stroke-width="0.5"/>
<path d="M10.2899 101.102L17.0041 104.967L24.1251 101.102L17.0041 97.8464L10.2899 101.102Z" stroke="black" stroke-width="0.5"/>
<path d="M10.2899 93.3703L17.0041 97.236L24.1251 93.3703L17.0041 90.115L10.2899 93.3703Z" stroke="black" stroke-width="0.5"/>
<path d="M10.2899 62.4445L17.0041 66.3103L24.1251 62.4445L17.0041 59.1892L10.2899 62.4445Z" stroke="black" stroke-width="0.5"/>
<path d="M10.2899 77.9074L17.0041 81.7732L24.1251 77.9074L17.0041 74.6521L10.2899 77.9074Z" stroke="black" stroke-width="0.5"/>
<path d="M10.2899 54.7131L17.0041 58.5789L24.1251 54.7131L17.0041 51.4578L10.2899 54.7131Z" stroke="black" stroke-width="0.5"/>
<path d="M10.2899 46.9817L17.0041 50.8474L24.1251 46.9817L17.0041 43.7263L10.2899 46.9817Z" stroke="black" stroke-width="0.5"/>
<path d="M10.2899 39.2503L17.0041 43.116L24.1251 39.2503L17.0041 35.9949L10.2899 39.2503Z" stroke="black" stroke-width="0.5"/>
<path d="M10.2899 31.5188L17.0041 35.3845L24.1251 31.5188L17.0041 28.2635L10.2899 31.5188Z" stroke="black" stroke-width="0.5"/>
<path d="M10.2899 23.7874L17.0041 27.6531L24.1251 23.7874L17.0041 20.532L10.2899 23.7874Z" stroke="black" stroke-width="0.5"/>
<path d="M10.2899 16.0559L17.0041 19.9217L24.1251 16.0559L17.0041 12.8006L10.2899 16.0559Z" stroke="black" stroke-width="0.5"/>
<path d="M10.2899 8.32449L17.0041 12.1902L24.1251 8.32449L17.0041 5.06915L10.2899 8.32449Z" stroke="black" stroke-width="0.5"/>
<path d="M10.2899 70.176L17.0041 74.0417L24.1251 70.176L17.0041 66.9207L10.2899 70.176Z" stroke="black" stroke-width="0.5"/>
<path d="M14.6 113.8V342.6L16.2 355.4L19 371L21 379L23.8 389.4" stroke="black" stroke-width="0.5"/>
<path d="M10.2899 85.6389L17.0041 89.5046L24.1251 85.6389L17.0041 82.3835L10.2899 85.6389Z" stroke="black" stroke-width="0.5"/>
</svg>
